<svg xmlns="http://www.w3.org/2000/svg" xmlns:xlink="http://www.w3.org/1999/xlink" viewBox="0 0 91.26 88.67"><defs><style>.cls-1{fill:none;}.cls-2{clip-path:url(#clip-path);}.cls-3{fill:#fe6612;}.cls-4{fill:#fe6712;}.cls-5{fill:#fe6812;}.cls-6{fill:#fe6912;}.cls-7{fill:#fe6a12;}.cls-8{fill:#fe6b12;}.cls-9{fill:#fe6c12;}.cls-10{fill:#fe6d12;}.cls-11{fill:#fe6e12;}.cls-12{fill:#fe6f11;}.cls-13{fill:#fe7011;}.cls-14{fill:#fe7111;}.cls-15{fill:#fe7211;}.cls-16{fill:#fe7311;}.cls-17{fill:#fe7411;}.cls-18{fill:#fe7511;}.cls-19{fill:#fe7611;}.cls-20{fill:#fe7711;}.cls-21{fill:#fe7811;}.cls-22{fill:#fe7911;}.cls-23{fill:#fe7a11;}.cls-24{fill:#fe7b11;}.cls-25{fill:#fe7c11;}.cls-26{fill:#fe7d11;}.cls-27{fill:#fe7e11;}.cls-28{fill:#fe7f10;}.cls-29{fill:#fe8010;}.cls-30{fill:#fe8110;}.cls-31{fill:#fe8210;}.cls-32{fill:#fe8310;}.cls-33{fill:#fe8410;}.cls-34{fill:#fe8510;}.cls-35{fill:#fe8610;}.cls-36{fill:#ff8810;}.cls-37{fill:#ff8910;}.cls-38{fill:#ff8a10;}.cls-39{fill:#ff8b10;}.cls-40{fill:#ff8c10;}.cls-41{fill:#ff8d10;}.cls-42{fill:#ff8e10;}.cls-43{fill:#ff8f10;}.cls-44{fill:#ff900f;}.cls-45{fill:#ff910f;}.cls-46{fill:#ff920f;}.cls-47{fill:#ff930f;}.cls-48{fill:#ff940f;}.cls-49{fill:#ff950f;}.cls-50{fill:#ff960f;}.cls-51{fill:#ff970f;}.cls-52{fill:#ff980f;}.cls-53{fill:#ff990f;}.cls-54{fill:#ff9a0f;}.cls-55{fill:#ff9b0f;}.cls-56{fill:#ff9c0f;}.cls-57{fill:#ff9d0f;}.cls-58{fill:#ff9e0f;}.cls-59{fill:#ff9f0f;}.cls-60{fill:#ffa00e;}.cls-61{fill:#ffa10e;}.cls-62{fill:#ffa20e;}.cls-63{fill:#ffa30e;}.cls-64{fill:#ffa40e;}.cls-65{fill:#ffa50e;}.cls-66{fill:#ffa60e;}.cls-67{fill:#ffa70e;}.cls-68{fill:#ffa80e;}.cls-69{fill:#0d0c0d;}</style><clipPath id="clip-path"><path class="cls-1" d="M12.34,55.39a33.29,33.29,0,0,0,66.57,0H12.34Z"/></clipPath></defs><g id="Vrstva_2" data-name="Vrstva 2"><g id="Vrstva_1-2" data-name="Vrstva 1"><g class="cls-2"><rect class="cls-3" x="12.34" y="55.39" width="66.57" height="33.28"/><path class="cls-3" d="M45.76,85.64C32.64,85.72,22,76,21.88,63.88a21,21,0,0,1,6.86-15.52v6H62.33V48.16a21,21,0,0,1,7,15.44C69.45,75.7,58.87,85.56,45.76,85.64Z"/><path class="cls-4" d="M45.75,85.08c-12.94.07-23.5-9.54-23.57-21.48A20.78,20.78,0,0,1,29,48.27v6.12H62.12V48.08a20.71,20.71,0,0,1,6.95,15.24C69.14,75.26,58.7,85,45.75,85.08Z"/><path class="cls-5" d="M45.75,84.51C33,84.59,22.56,75.1,22.49,63.31a20.45,20.45,0,0,1,6.69-15.13v6.21H61.9V48a20.51,20.51,0,0,1,6.87,15C68.84,74.82,58.53,84.44,45.75,84.51Z"/><path class="cls-6" d="M45.75,84C33.14,84,22.86,74.66,22.79,63a20.21,20.21,0,0,1,6.6-14.93v6.29h32.3V47.91a20.23,20.23,0,0,1,6.78,14.85C68.53,74.39,58.36,83.88,45.75,84Z"/><path class="cls-7" d="M45.75,83.39c-12.45.07-22.59-9.17-22.66-20.65A19.93,19.93,0,0,1,29.61,48v6.38H61.48V47.82a19.93,19.93,0,0,1,6.68,14.66C68.23,74,58.2,83.31,45.75,83.39Z"/><path class="cls-8" d="M45.75,82.82c-12.28.08-22.29-9-22.35-20.37a19.63,19.63,0,0,1,6.42-14.53v6.47H61.26V47.74a19.62,19.62,0,0,1,6.6,14.45C67.93,73.51,58,82.75,45.75,82.82Z"/><path class="cls-9" d="M45.75,82.26c-12.11.07-22-8.92-22-20.09A19.43,19.43,0,0,1,30,47.83v6.56h31V47.65a19.44,19.44,0,0,1,6.51,14.26C67.62,73.08,57.86,82.19,45.75,82.26Z"/><path class="cls-10" d="M45.74,81.7C33.8,81.77,24.07,72.9,24,61.88a19.14,19.14,0,0,1,6.25-14.13v6.64H60.84V47.57a19.11,19.11,0,0,1,6.41,14.06C67.32,72.64,57.69,81.63,45.74,81.7Z"/><path class="cls-11" d="M45.74,81.13C34,81.2,24.37,72.46,24.31,61.6a18.82,18.82,0,0,1,6.16-13.94v6.73H60.62V47.48A18.88,18.88,0,0,1,67,61.35C67,72.21,57.52,81.06,45.74,81.13Z"/><path class="cls-12" d="M45.74,80.57C34.13,80.64,24.67,72,24.61,61.31a18.61,18.61,0,0,1,6.07-13.74v6.82H60.41v-7a18.63,18.63,0,0,1,6.24,13.67C66.71,71.77,57.35,80.5,45.74,80.57Z"/><path class="cls-13" d="M45.74,80C34.3,80.07,25,71.58,24.91,61a18.34,18.34,0,0,1,6-13.55v6.91H64.67v-1a17.71,17.71,0,0,1,1.67,7.42C66.4,71.33,57.18,79.94,45.74,80Z"/><path class="cls-14" d="M45.74,79.44c-11.27.07-20.46-8.3-20.52-18.7a18,18,0,0,1,5.9-13.34v7H64.39V53.18A17.55,17.55,0,0,1,66,60.5C66.1,70.9,57,79.38,45.74,79.44Z"/><path class="cls-15" d="M45.74,78.88c-11.11.06-20.16-8.18-20.22-18.43a17,17,0,0,1,1.54-7.22v1.16H64.11V53a17.34,17.34,0,0,1,1.63,7.21C65.8,70.46,56.84,78.81,45.74,78.88Z"/><path class="cls-16" d="M45.73,78.31c-10.93.07-19.85-8-19.91-18.14a17.07,17.07,0,0,1,1.52-7.12v1.34H63.83V52.84a16.85,16.85,0,0,1,1.6,7.1C65.49,70,56.67,78.25,45.73,78.31Z"/><path class="cls-17" d="M45.73,77.75c-10.77.06-19.55-7.94-19.6-17.87a16.5,16.5,0,0,1,1.49-7v1.51H63.56V52.66a16.67,16.67,0,0,1,1.57,7C65.19,69.59,56.5,77.69,45.73,77.75Z"/><path class="cls-18" d="M45.73,77.19c-10.6.06-19.24-7.82-19.3-17.59a16.34,16.34,0,0,1,1.47-6.9v1.69H63.28v-1.9a16.62,16.62,0,0,1,1.55,6.88C64.88,69.15,56.33,77.13,45.73,77.19Z"/><path class="cls-19" d="M45.73,76.62c-10.44.07-18.94-7.69-19-17.31a16.2,16.2,0,0,1,1.45-6.79v1.87H63V52.32a16.09,16.09,0,0,1,1.52,6.77C64.58,68.71,56.17,76.56,45.73,76.62Z"/><path class="cls-20" d="M45.73,76.06C35.46,76.12,27.09,68.49,27,59a15.87,15.87,0,0,1,1.42-6.69v2H62.72V52.14a16,16,0,0,1,1.5,6.67C64.28,68.28,56,76,45.73,76.06Z"/><path class="cls-21" d="M45.73,75.5c-10.1.06-18.34-7.45-18.39-16.76a15.47,15.47,0,0,1,1.4-6.57v2.22h33.7V52a15.75,15.75,0,0,1,1.48,6.56C64,67.84,55.83,75.44,45.73,75.5Z"/><path class="cls-22" d="M45.73,74.93c-9.94.06-18-7.32-18.09-16.47A15.49,15.49,0,0,1,29,52v2.4H62.16V51.8a15.37,15.37,0,0,1,1.45,6.44C63.67,67.4,55.66,74.88,45.73,74.93Z"/><path class="cls-23" d="M45.72,74.37C36,74.43,28,67.17,27.94,58.17a15.16,15.16,0,0,1,1.36-6.36v2.58H61.88V51.62A15.09,15.09,0,0,1,63.31,58C63.36,67,55.49,74.31,45.72,74.37Z"/><path class="cls-24" d="M45.72,73.81c-9.6,0-17.42-7.08-17.47-15.93a14.9,14.9,0,0,1,1.33-6.24v2.75h32V51.45A14.88,14.88,0,0,1,63,57.68C63.06,66.53,55.32,73.75,45.72,73.81Z"/><path class="cls-25" d="M45.72,73.24c-9.43.06-17.12-6.95-17.17-15.64a14.59,14.59,0,0,1,1.31-6.14v2.93H61.33V51.28A14.62,14.62,0,0,1,62.7,57.4C62.75,66.09,55.15,73.19,45.72,73.24Z"/><path class="cls-26" d="M45.72,72.68c-9.26,0-16.82-6.83-16.87-15.37a14.44,14.44,0,0,1,1.29-6v3.11H61.05V51.1a14.38,14.38,0,0,1,1.35,6C62.45,65.66,55,72.62,45.72,72.68Z"/><path class="cls-27" d="M45.72,72.12c-9.1,0-16.51-6.71-16.56-15.09a14,14,0,0,1,1.26-5.92v3.28H60.77V50.93a14.16,14.16,0,0,1,1.33,5.9C62.15,65.22,54.81,72.06,45.72,72.12Z"/><path class="cls-28" d="M45.72,71.55c-8.93,0-16.21-6.58-16.26-14.81a13.87,13.87,0,0,1,1.24-5.81v3.46H60.49V50.76a13.75,13.75,0,0,1,1.3,5.79C61.84,64.78,54.64,71.5,45.72,71.55Z"/><path class="cls-29" d="M45.71,71C37,71,29.81,64.53,29.76,56.46A13.74,13.74,0,0,1,31,50.75v3.64H60.21V50.58a13.66,13.66,0,0,1,1.28,5.69C61.54,64.35,54.47,70.94,45.71,71Z"/><path class="cls-30" d="M45.71,70.43c-8.59,0-15.6-6.34-15.64-14.26a13.32,13.32,0,0,1,1.19-5.59v3.81H59.93v-4A13.29,13.29,0,0,1,61.19,56C61.23,63.91,54.31,70.37,45.71,70.43Z"/><path class="cls-31" d="M45.71,69.86c-8.43,0-15.29-6.21-15.34-14a13.15,13.15,0,0,1,1.17-5.48v4H59.65V50.24a12.88,12.88,0,0,1,1.23,5.46C60.93,63.47,54.14,69.81,45.71,69.86Z"/><path class="cls-32" d="M45.71,69.3c-8.26,0-15-6.09-15-13.7a12.83,12.83,0,0,1,1.15-5.38v4.17H59.37V50.06a12.79,12.79,0,0,1,1.21,5.36C60.63,63,54,69.25,45.71,69.3Z"/><path class="cls-33" d="M45.71,68.73c-8.09,0-14.69-6-14.73-13.42a12.6,12.6,0,0,1,1.12-5.26v4.34h27v-4.5a12.53,12.53,0,0,1,1.18,5.25C60.32,62.6,53.8,68.69,45.71,68.73Z"/><path class="cls-34" d="M45.71,68.17c-7.93,0-14.39-5.84-14.43-13.14a12.29,12.29,0,0,1,1.1-5.16v4.52H58.82V49.72A12.32,12.32,0,0,1,60,54.86C60,62.16,53.63,68.12,45.71,68.17Z"/><path class="cls-35" d="M45.7,67.61c-7.75,0-14.07-5.72-14.12-12.87a12.11,12.11,0,0,1,1.08-5.05v4.7H58.54V49.54a12.07,12.07,0,0,1,1.13,5C59.71,61.73,53.46,67.56,45.7,67.61Z"/><path class="cls-36" d="M45.7,67c-7.59,0-13.77-5.59-13.81-12.58a11.74,11.74,0,0,1,1-4.94v4.87H59.37v-.1C59.41,61.29,53.29,67,45.7,67Z"/><path class="cls-37" d="M45.7,66.48c-7.42,0-13.47-5.47-13.51-12.31v.22H59.06V54C59.11,60.85,53.12,66.44,45.7,66.48Z"/><path class="cls-38" d="M45.7,65.92c-7.25,0-13.17-5.35-13.21-12v.51H58.76v-.66C58.8,60.42,53,65.87,45.7,65.92Z"/><path class="cls-39" d="M45.7,65.35c-7.09.05-12.86-5.22-12.9-11.75v.79H58.46v-.94C58.5,60,52.78,65.31,45.7,65.35Z"/><path class="cls-40" d="M45.7,64.79c-6.92,0-12.56-5.1-12.6-11.48v1.08H58.16V53.17C58.19,59.54,52.61,64.75,45.7,64.79Z"/><path class="cls-41" d="M45.69,64.23c-6.75,0-12.25-5-12.29-11.2v1.36H57.85V52.88C57.89,59.11,52.45,64.19,45.69,64.23Z"/><path class="cls-42" d="M45.69,63.66c-6.58,0-11.95-4.85-12-10.92v1.65H57.55V52.6C57.58,58.67,52.28,63.62,45.69,63.66Z"/><path class="cls-43" d="M45.69,63.1C39.27,63.14,34,58.37,34,52.46v1.93H57.25V52.32C57.28,58.23,52.11,63.06,45.69,63.1Z"/><path class="cls-44" d="M45.69,62.54c-6.25,0-11.34-4.61-11.38-10.37v2.22H56.94V52C57,57.8,51.94,62.5,45.69,62.54Z"/><path class="cls-45" d="M45.69,62c-6.08,0-11-4.48-11.07-10.09v2.51h22V51.75C56.67,57.36,51.77,61.94,45.69,62Z"/><path class="cls-46" d="M45.69,61.41c-5.92,0-10.74-4.36-10.77-9.81v2.79H56.34V51.47C56.37,56.93,51.6,61.37,45.69,61.41Z"/><path class="cls-47" d="M45.68,60.85c-5.74,0-10.43-4.24-10.46-9.54v3.08H56v-3.2C56.06,56.49,51.43,60.81,45.68,60.85Z"/><path class="cls-48" d="M45.68,60.28c-5.58,0-10.12-4.11-10.15-9.25v3.36h20.2V50.91C55.76,56.05,51.26,60.25,45.68,60.28Z"/><path class="cls-49" d="M45.68,59.72c-5.41,0-9.82-4-9.85-9v3.65h19.6V50.63C55.46,55.62,51.09,59.69,45.68,59.72Z"/><path class="cls-50" d="M45.68,59.15c-5.24,0-9.52-3.86-9.55-8.69v3.93h19v-4C55.15,55.18,50.92,59.12,45.68,59.15Z"/><path class="cls-51" d="M45.68,58.59c-5.08,0-9.22-3.74-9.24-8.42v4.22H54.82V50.06C54.85,54.74,50.75,58.56,45.68,58.59Z"/><path class="cls-52" d="M45.68,58c-4.91,0-8.91-3.62-8.94-8.15v4.51H54.52V49.78C54.54,54.31,50.58,58,45.68,58Z"/><path class="cls-53" d="M45.67,57.46c-4.74,0-8.6-3.49-8.63-7.86v4.79H54.21V49.5C54.24,53.87,50.42,57.44,45.67,57.46Z"/><path class="cls-54" d="M45.67,56.9c-4.57,0-8.3-3.37-8.32-7.59v5.08H53.91V49.22C53.93,53.43,50.25,56.87,45.67,56.9Z"/><path class="cls-55" d="M45.67,56.34c-4.41,0-8-3.25-8-7.31v5.36h16V48.93C53.63,53,50.08,56.31,45.67,56.34Z"/><path class="cls-56" d="M45.67,55.77c-4.24,0-7.69-3.12-7.72-7v5.65H53.3V48.65C53.33,52.56,49.91,55.75,45.67,55.77Z"/><path class="cls-57" d="M45.67,55.21c-4.07,0-7.39-3-7.41-6.75v5.93H53v-6A7.1,7.1,0,0,1,45.67,55.21Z"/><path class="cls-58" d="M45.67,54.65a6.81,6.81,0,0,1-7.11-6.48v6.22H52.7v-6.3A6.82,6.82,0,0,1,45.67,54.65Z"/><path class="cls-59" d="M45.66,54.39h0Z"/><path class="cls-60" d="M45.66,54.39h0Z"/><path class="cls-61" d="M45.66,54.39h0Z"/><path class="cls-62" d="M45.66,54.39h0Z"/><path class="cls-63" d="M45.66,54.39h0Z"/><path class="cls-64" d="M45.66,54.39h0Z"/><path class="cls-65" d="M45.65,54.39h0Z"/><path class="cls-66" d="M45.65,54.39h0Z"/><path class="cls-67" d="M45.65,54.39h0Z"/><path class="cls-68" d="M45.65,54.39h0Z"/></g><path class="cls-69" d="M65.61,18c0-5.5-3.13-7.11-6-7.11C55,10.85,51.7,15,51.7,19.26V40H39.55V18c0-5.5-3.14-7.11-6-7.11-4.66,0-8,4.2-8,8.41V40H13.41V.92H25.64V6.65C28,2.6,32,0,38,0c5.19,0,9.47,2.14,11.84,6.88C52.46,2.75,57.05,0,63.39,0c8.33,0,14.45,4.74,14.45,16.21V40H65.61Z"/><rect class="cls-69" y="48.06" width="91.26" height="10.05" transform="translate(91.26 106.18) rotate(180)"/></g></g></svg>