<?xml version="1.0" encoding="UTF-8"?>
<svg id="Vrstva_2" data-name="Vrstva 2" xmlns="http://www.w3.org/2000/svg" viewBox="0 0 790.48 571.61">
  <defs>
    <style>
      .cls-1 {
        fill: #ed711b;
      }

      .cls-1, .cls-2, .cls-3, .cls-4, .cls-5, .cls-6, .cls-7 {
        stroke-width: 0px;
      }

      .cls-2 {
        fill: #fab70f;
      }

      .cls-3 {
        fill: #000;
      }

      .cls-4 {
        fill: #f7aa14;
      }

      .cls-5 {
        fill: #ef801b;
      }

      .cls-6 {
        fill: #f49d18;
      }

      .cls-7 {
        fill: #2b323a;
      }
    </style>
  </defs>
  <g id="Vrstva_1-2" data-name="Vrstva 1">
    <g>
      <g>
        <path class="cls-3" d="M399.13,0c-3.52,0-7.04.08-10.56.17h22.78c-4.04-.1-8.1-.17-12.23-.17Z"/>
        <path class="cls-1" d="M472.26,10.74c-11.45-3.21-23.19-5.73-35.18-7.49-13.66-2.01-27.63-3.08-41.85-3.08s-28.18,1.08-41.85,3.08c-11.99,1.76-23.73,4.28-35.18,7.49h154.05Z"/>
        <path class="cls-2" d="M318.15,561.02c11.47,3.22,23.23,5.74,35.24,7.51,13.21,1.94,26.7,2.98,40.43,3.04.47,0,.94.04,1.42.04.38,0,.75-.03,1.12-.03,13.83-.05,27.42-1.1,40.72-3.05,12.01-1.76,23.77-4.29,35.24-7.51h-154.18Z"/>
        <path class="cls-2" d="M239.7,525.5c4.01,2.59,8.06,5.1,12.19,7.51,1.78,1.04,3.55,2.08,5.36,3.08,4.8,2.65,9.71,5.1,14.68,7.47h246.64c4.96-2.37,9.88-4.82,14.68-7.47,1.81-1,3.58-2.05,5.36-3.08,4.13-2.4,8.18-4.92,12.19-7.51H239.7Z"/>
        <path class="cls-2" d="M195.45,489.98c2.57,2.53,5.12,5.08,7.8,7.5,1.16,1.05,2.38,2.05,3.56,3.08,2.94,2.58,5.99,5.01,9.03,7.47h358.81c3.04-2.46,6.1-4.89,9.03-7.47,1.18-1.04,2.39-2.03,3.56-3.08,2.67-2.43,5.23-4.97,7.8-7.5H195.45Z"/>
        <path class="cls-2" d="M172.38,454.46l-4.19,4.8c.7.91,1.42,1.8,2.12,2.7.81,1.03,1.6,2.06,2.42,3.08,2.05,2.54,4.2,5,6.33,7.47h432.36c2.13-2.47,4.28-4.93,6.33-7.47.82-1.02,1.61-2.05,2.42-3.08,1.74-2.22,3.48-4.44,5.16-6.72.11-.27.22-.53.33-.79H172.38Z"/>
        <path class="cls-4" d="M634.92,418.94h-163.22c-2.97,2.75-6.41,5.26-10.3,7.5h-146.7c-5.93-2.14-11.89-4.7-17.86-7.5h-93.48l-6.54,7.5h-50.31c.58,1.03,1.18,2.06,1.77,3.08h45.85l-6.52,7.47h169.38c-10.75-1.62-21.83-3.98-33.11-7.47h131.51c-6.98,3.22-15.08,5.71-24.08,7.47h200.03c.63-2.47,1.27-4.94,1.8-7.47h9.06c.6-1.02,1.19-2.05,1.77-3.08h-10.24c.46-2.46.82-4.98,1.2-7.5Z"/>
        <path class="cls-4" d="M636.31,383.42h-153.51c.64,2.42,1.1,4.89,1.17,7.5h-231.22c-2.9-2.39-5.78-4.9-8.65-7.5h-9.75l-6.54,7.5h-98.27c.41,1.03.8,2.06,1.21,3.08h94.37l-6.52,7.47h48.04c-3.39-2.37-6.77-4.83-10.13-7.47h227.31c-.17,2.59-.66,5.07-1.31,7.47h154c.1-2.46.22-4.91.22-7.44,0-.01,0-.03,0-.04h23.01c.42-1.02.81-2.05,1.21-3.08h-24.35c-.05-2.53-.17-5.02-.29-7.5Z"/>
        <path class="cls-6" d="M672.4,355.4h-39.78c-.56-2.55-1.23-5.02-1.89-7.5h-199.64c8.74,2.11,16.53,4.59,23.14,7.5H118.08c.26,1.03.51,2.06.77,3.08h341.73c4.23,2.29,7.91,4.78,11.02,7.48h162.92c-.4-2.51-.79-5.03-1.28-7.48h38.38c.27-1.02.52-2.05.77-3.08Z"/>
        <path class="cls-5" d="M672.4,216.39c-.26-1.03-.51-2.06-.77-3.08h-256.74c-19.32-1.97-36.32-3.99-50.24-7.5h-190.04c.5,2.52.99,5.05,1.56,7.5h-57.32c-.27,1.02-.52,2.05-.77,3.08h58.82c.65,2.56,1.41,5.01,2.16,7.48h297.84c-12.68-3.06-25.61-5.51-38.58-7.48h234.09Z"/>
        <path class="cls-5" d="M659.73,177.79h-332.64c-.7-2.33-1.17-4.85-1.49-7.49h-154.56c.06,2.52.12,5.04.25,7.49h-40.55c-.42,1.02-.81,2.05-1.21,3.08h41.93c.16,2.55.41,5.01.64,7.48h160.34c-1.76-2.28-3.32-4.71-4.43-7.48h332.93c-.41-1.03-.8-2.06-1.21-3.08Z"/>
        <path class="cls-1" d="M542.34,142.26l5.88-7.49h-74.93c6.78,2.13,13.44,4.59,19.96,7.49h-157.61c3.16-2.88,6.97-5.35,11.21-7.49h-172.97c-.47,2.48-.95,4.95-1.31,7.49h-24.28c-.6,1.02-1.19,2.05-1.77,3.08h25.66c-.3,2.45-.49,4.97-.69,7.48h156.47c1.23-2.68,2.71-5.21,4.67-7.48h167.18c4.54,2.26,9,4.79,13.4,7.48h20.85l5.87-7.48h104.04c-.58-1.03-1.17-2.06-1.77-3.08h-99.86Z"/>
        <path class="cls-1" d="M570.2,106.74l5.88-7.49H185.89c-1.22,2.47-2.45,4.93-3.54,7.49h-9.63c-.82,1.02-1.61,2.05-2.42,3.08h10.82c-.97,2.44-1.81,4.97-2.67,7.48h383.45l5.87-7.48h52.39c-.81-1.03-1.6-2.06-2.42-3.08h-47.55Z"/>
        <path class="cls-1" d="M583.68,71.22c-2.94-2.58-6.01-5.03-9.06-7.49H211.51c-2.41,2.46-4.84,4.89-7.07,7.49-.87,1.01-1.7,2.05-2.54,3.08-1.33,1.64-2.64,3.29-3.89,4.98-.61.82-1.17,1.67-1.76,2.5h393.52l2.28-2.91c-1.6-1.53-3.17-3.09-4.81-4.58-1.16-1.05-2.38-2.05-3.56-3.08Z"/>
        <path class="cls-1" d="M533.23,35.7c-4.81-2.66-9.74-5.12-14.72-7.49h-246.56c-4.98,2.37-9.91,4.83-14.72,7.49-1.8,1-3.58,2.05-5.36,3.08-4.12,2.4-8.17,4.91-12.16,7.49h311.03c-4-2.58-8.04-5.09-12.16-7.49-1.78-1.04-3.55-2.08-5.36-3.08Z"/>
      </g>
      <g>
        <path class="cls-7" d="M65.06,260.78c-5.42-5.7-14.88-8.2-22.52-8.2-9.59,0-17.38,4.03-17.38,10.7,0,8.9,8.48,10.57,20.99,11.68,19.18,1.67,37.4,9.04,37.4,31.56s-20.02,31.14-41.01,31.28c-16.82.14-34.34-6.39-42.54-20.02l12.93-13.48c7.51,9.59,19.88,13.76,29.75,13.76,11.54,0,19.46-4.59,19.46-11.54.14-8.2-6.4-11.96-19.6-13.07-20.57-1.95-38.93-7.09-38.65-30.03.14-19.32,18.49-29.61,38.51-29.61,15.01,0,26.27,3.34,36.28,15.01l-13.62,11.96Z"/>
        <path class="cls-7" d="M182.26,237.43v54.36c0,28.92-16.13,44.35-41.7,45.18-25.44.83-46.99-13.76-46.99-45.18v-54.36h21.55v54.36c0,17.38,9.73,26.41,25.58,25.72,14.74-.97,20.02-11.12,20.02-25.72v-54.36h21.55Z"/>
        <path class="cls-7" d="M350.06,237.29c17.65,0,32.81,8.62,32.81,27.11,0,9.04-5,16.4-14.6,20.16,11.96,3.34,17.65,14.18,17.65,23.08,0,20.85-17.38,26.97-35.87,26.97h-42.54v-97.32h42.54ZM319.75,279.13h30.86c11.54,0,20.16-4.17,20.16-14.6s-8.76-16.26-20.71-16.26h-30.31v30.86ZM319.75,323.2h30.31c10.01,0,23.63-2.64,23.63-15.99,0-12.1-12.65-17.1-23.08-17.1h-30.86v33.09Z"/>
        <path class="cls-7" d="M414.56,323.34h52.97v11.26h-65.2v-97.32h12.24v86.06Z"/>
        <path class="cls-7" d="M479.48,237.29h12.24v97.32h-12.24v-97.32Z"/>
        <path class="cls-7" d="M616.56,237.15h35.45c33.09,0,48.94,23.77,48.94,47.68s-14.73,49.77-48.94,49.77h-35.45v-97.46ZM652.01,322.65c26,0,36.98-19.32,36.98-37.95s-11.96-36.01-36.98-36.01h-23.22v73.96h23.22Z"/>
        <path class="cls-7" d="M750.99,246.18c-12.37,0-25.58,5.28-25.58,16.26s12.1,14.04,26.41,16.27c19.33,2.92,38.65,7.51,38.65,28.5s-21.13,29.33-39.62,29.33c-16.26,0-33.37-5.84-40.87-22.38l9.59-5.98c6.53,11.96,18.07,17.24,31.42,17.24,11.82,0,27.67-3.89,27.67-18.35,0-11.96-13.48-15.43-28.08-17.66-18.77-2.92-37.12-7.09-37.12-26.83-.42-19.6,20.71-27.25,37.26-27.25,14.04,0,28.22,3.61,36.98,17.93l-9.17,5.7c-5.56-8.48-16.54-12.65-27.53-12.79Z"/>
        <circle class="cls-7" cx="273.75" cy="248.81" r="15"/>
        <polygon class="cls-7" points="287.22 326.9 287.22 326.9 217.71 237.29 199.08 237.29 199.08 334.6 221.05 334.6 221.05 304.3 221.05 273.39 268.59 334.6 280.62 334.6 287.22 334.6 293.19 334.6 287.22 326.9"/>
        <polygon class="cls-7" points="582.22 237.29 582.22 311.94 522.58 237.29 514.1 237.29 514.1 334.6 526.19 334.6 526.19 260.22 585.84 334.6 594.18 334.6 594.18 237.29 582.22 237.29"/>
      </g>
    </g>
  </g>
</svg>