<svg width="178" height="128" viewBox="0 0 178 128" fill="none" xmlns="http://www.w3.org/2000/svg">
<g clip-path="url(#clip0_1_279)">
<path d="M89.8759 0C89.0833 0 88.2907 0.0179143 87.498 0.0380679H92.6276C91.7179 0.015675 90.8037 0 89.8737 0H89.8759Z" fill="black"/>
<path d="M106.343 2.405C103.765 1.68618 101.121 1.12188 98.4215 0.727769C95.3456 0.277672 92.1998 0.0380679 88.9977 0.0380679C85.7957 0.0380679 82.6522 0.279911 79.574 0.727769C76.8741 1.12188 74.2305 1.68618 71.6522 2.405H106.341H106.343Z" fill="#ED711B"/>
<path d="M71.6409 125.629C74.2237 126.35 76.8718 126.914 79.5763 127.31C82.5509 127.745 85.5885 127.978 88.6803 127.991C88.7861 127.991 88.8919 128 89 128C89.0856 128 89.1689 127.993 89.2522 127.993C92.3664 127.982 95.4266 127.747 98.4215 127.31C101.126 126.916 103.774 126.35 106.357 125.629H71.6387H71.6409Z" fill="#FAB70F"/>
<path d="M53.9756 117.675C54.8786 118.255 55.7905 118.817 56.7205 119.356C57.1213 119.589 57.5199 119.822 57.9275 120.046C59.0084 120.639 60.114 121.188 61.2331 121.719H116.771C117.888 121.188 118.996 120.639 120.077 120.046C120.485 119.822 120.883 119.587 121.284 119.356C122.214 118.819 123.126 118.255 124.029 117.675H53.9756Z" fill="#FAB70F"/>
<path d="M44.0114 109.721C44.5901 110.287 45.1643 110.858 45.7678 111.4C46.029 111.635 46.3037 111.859 46.5694 112.09C47.2314 112.668 47.9182 113.212 48.6028 113.763H129.399C130.084 113.212 130.773 112.668 131.433 112.09C131.699 111.857 131.971 111.635 132.234 111.4C132.836 110.856 133.412 110.287 133.991 109.721H44.0114Z" fill="#FAB70F"/>
<path d="M38.8165 101.767L37.873 102.842C38.0306 103.045 38.1927 103.245 38.3504 103.446C38.5328 103.677 38.7107 103.908 38.8953 104.136C39.3569 104.705 39.8411 105.256 40.3207 105.809H137.679C138.159 105.256 138.643 104.705 139.105 104.136C139.289 103.908 139.467 103.677 139.65 103.446C140.041 102.949 140.433 102.452 140.812 101.941C140.836 101.881 140.861 101.823 140.886 101.765H38.8165V101.767Z" fill="#FAB70F"/>
<path d="M142.971 93.8128H106.217C105.548 94.4286 104.774 94.9906 103.898 95.4922H70.8641C69.5287 95.013 68.1867 94.4398 66.8423 93.8128H45.7926L44.3199 95.4922H32.9911C33.1217 95.7229 33.2568 95.9535 33.3897 96.1819H43.7141L42.246 97.8547H80.3869C77.9662 97.4919 75.4712 96.9634 72.9312 96.1819H102.545C100.973 96.903 99.1489 97.4606 97.1223 97.8547H142.165C142.307 97.3016 142.451 96.7485 142.57 96.1819H144.61C144.745 95.9535 144.878 95.7229 145.009 95.4922H142.703C142.807 94.9414 142.888 94.3771 142.973 93.8128H142.971Z" fill="#F7AA14"/>
<path d="M143.284 85.8588H108.717C108.861 86.4007 108.964 86.9538 108.98 87.5383H56.9142C56.2612 87.0031 55.6126 86.441 54.9664 85.8588H52.7709L51.2982 87.5383H29.1698C29.2621 87.7689 29.3499 87.9996 29.4423 88.228H50.6925L49.2243 89.9007H60.0419C59.2786 89.37 58.5175 88.8192 57.7609 88.228H108.946C108.908 88.808 108.798 89.3633 108.651 89.9007H143.329C143.352 89.3499 143.379 88.8012 143.379 88.2347C143.379 88.2325 143.379 88.228 143.379 88.2257H148.56C148.655 87.9973 148.742 87.7667 148.833 87.536H143.349C143.338 86.9695 143.311 86.4119 143.284 85.8566V85.8588Z" fill="#F7AA14"/>
<path d="M151.411 79.5843H142.453C142.327 79.0133 142.176 78.4602 142.028 77.9049H97.0727C99.0408 78.3774 100.795 78.9327 102.283 79.5843H26.5892C26.6478 79.815 26.7041 80.0456 26.7626 80.274H103.713C104.666 80.7868 105.494 81.3444 106.195 81.949H142.881C142.791 81.387 142.703 80.8227 142.593 80.274H151.235C151.296 80.0456 151.352 79.815 151.409 79.5843H151.411Z" fill="#F49D18"/>
<path d="M151.411 48.456C151.352 48.2253 151.296 47.9947 151.237 47.7663H93.4248C89.0743 47.3251 85.2463 46.8728 82.1118 46.0868H39.3186C39.4312 46.6511 39.5416 47.2176 39.6699 47.7663H26.7626C26.7018 47.9947 26.6455 48.2253 26.5892 48.456H39.8343C39.9807 49.0292 40.1518 49.5779 40.3207 50.131H107.388C104.533 49.4457 101.621 48.8971 98.7008 48.456H151.413H151.411Z" fill="#EF801B"/>
<path d="M148.558 39.8123H73.654C73.4964 39.2906 73.3906 38.7263 73.3185 38.1351H38.5147C38.5283 38.6994 38.5418 39.2637 38.571 39.8123H29.44C29.3454 40.0407 29.2576 40.2714 29.1675 40.502H38.6093C38.6454 41.073 38.7016 41.6239 38.7534 42.177H74.8587C74.4624 41.6665 74.1112 41.1223 73.8612 40.502H148.83C148.738 40.2714 148.65 40.0407 148.558 39.8123Z" fill="#EF801B"/>
<path d="M122.124 31.8561L123.448 30.1789H106.575C108.102 30.6559 109.602 31.2067 111.07 31.8561H75.5793C76.2909 31.2112 77.1488 30.6581 78.1036 30.1789H39.1543C39.0484 30.7342 38.9403 31.2873 38.8593 31.8561H33.3919C33.2568 32.0845 33.124 32.3152 32.9933 32.5458H38.7715C38.7039 33.0944 38.6611 33.6588 38.6161 34.2208H73.8499C74.1269 33.6207 74.4602 33.0541 74.9015 32.5458H112.547C113.569 33.0519 114.574 33.6184 115.564 34.2208H120.259L121.581 32.5458H145.009C144.878 32.3152 144.745 32.0845 144.61 31.8561H122.124Z" fill="#ED711B"/>
<path d="M128.397 23.9022L129.722 22.2249H41.8587C41.584 22.778 41.307 23.3289 41.0616 23.9022H38.8931C38.7084 24.1306 38.5305 24.3612 38.3481 24.5919H40.7846C40.5662 25.1383 40.377 25.7048 40.1834 26.2669H126.529L127.85 24.5919H139.647C139.465 24.3612 139.287 24.1306 139.103 23.9022H128.395H128.397Z" fill="#ED711B"/>
<path d="M131.433 15.9482C130.771 15.3705 130.08 14.8219 129.393 14.271H47.6278C47.0851 14.8219 46.5379 15.366 46.0358 15.9482C45.8398 16.1744 45.6529 16.4073 45.4638 16.6379C45.1643 17.0052 44.8693 17.3746 44.5878 17.7531C44.4505 17.9367 44.3244 18.127 44.1915 18.3129H132.804L133.318 17.6613C132.957 17.3187 132.604 16.9693 132.235 16.6357C131.973 16.4006 131.699 16.1766 131.433 15.946V15.9482Z" fill="#ED711B"/>
<path d="M120.073 7.99426C118.989 7.39861 117.879 6.84774 116.758 6.31703H61.2376C60.1162 6.84774 59.0061 7.39861 57.923 7.99426C57.5177 8.21819 57.1168 8.45331 56.716 8.68396C55.7883 9.22139 54.8763 9.78345 53.9778 10.3612H124.015C123.115 9.78345 122.205 9.22139 121.277 8.68396C120.876 8.45108 120.478 8.21819 120.07 7.99426H120.073Z" fill="#ED711B"/>
<path d="M14.6502 58.3962C13.4297 57.1198 11.2995 56.56 9.57914 56.56C7.41967 56.56 5.66552 57.4624 5.66552 58.956C5.66552 60.949 7.57504 61.3229 10.392 61.5715C14.711 61.9455 18.8138 63.5958 18.8138 68.6387C18.8138 73.6816 14.3057 75.6118 9.57914 75.6432C5.79162 75.6745 1.84647 74.2123 0 71.1601L2.91157 68.1416C4.60267 70.289 7.38814 71.2228 9.61067 71.2228C12.2092 71.2228 13.9927 70.195 13.9927 68.6387C14.0242 66.8025 12.5515 65.9605 9.57914 65.7119C4.9472 65.2753 0.812899 64.1243 0.875949 58.9874C0.907474 54.6611 5.03952 52.3568 9.54762 52.3568C12.9276 52.3568 15.4631 53.1047 17.7171 55.718L14.6502 58.3962Z" fill="white"/>
<path d="M41.0412 53.1674V65.3402C41.0412 71.8162 37.4091 75.2715 31.6513 75.4573C25.9227 75.6432 21.0701 72.3761 21.0701 65.3402V53.1674H25.9227V65.3402C25.9227 69.2321 28.1137 71.2542 31.6828 71.0997C35.0019 70.8825 36.1909 68.6096 36.1909 65.3402V53.1674H41.0435H41.0412Z" fill="white"/>
<path d="M78.8264 53.1361C82.8008 53.1361 86.2145 55.0664 86.2145 59.2068C86.2145 61.2311 85.0886 62.8792 82.9269 63.7212C85.6201 64.4691 86.9013 66.8965 86.9013 68.8895C86.9013 73.5584 82.9877 74.9288 78.8241 74.9288H69.245V53.1361H78.8241H78.8264ZM72.0012 62.5053H78.9502C81.5488 62.5053 83.4899 61.5715 83.4899 59.2359C83.4899 56.9003 81.5173 55.5948 78.8264 55.5948H72.0012V62.5053ZM72.0012 72.3738H78.8264C81.0804 72.3738 84.1474 71.7826 84.1474 68.7932C84.1474 66.0837 81.2989 64.964 78.9502 64.964H72.0012V72.3738Z" fill="white"/>
<path d="M93.3504 72.4052H105.278V74.9266H90.5965V53.1339H93.3527V72.4052H93.3504Z" fill="white"/>
<path d="M107.969 53.1361H110.725V74.9288H107.969V53.1361Z" fill="white"/>
<path d="M138.837 53.1047H146.819C154.271 53.1047 157.84 58.4275 157.84 63.7817C157.84 69.1358 154.523 74.9266 146.819 74.9266H138.837V53.1025V53.1047ZM146.819 72.2507C152.674 72.2507 155.147 67.9244 155.147 63.7526C155.147 59.5808 152.453 55.6889 146.819 55.6889H141.591V72.2507H146.819Z" fill="white"/>
<path d="M169.108 55.1268C166.322 55.1268 163.348 56.3092 163.348 58.7679C163.348 61.2266 166.072 61.9119 169.295 62.4112C173.647 63.0651 177.998 64.0929 177.998 68.7932C177.998 73.4935 173.24 75.361 169.076 75.361C165.415 75.361 161.562 74.0533 159.873 70.3495L162.033 69.0104C163.503 71.6886 166.102 72.8709 169.108 72.8709C171.769 72.8709 175.338 71.9999 175.338 68.7619C175.338 66.0837 172.303 65.3066 169.015 64.8073C164.789 64.1534 160.657 63.2196 160.657 58.7992C160.562 54.4102 165.32 52.6972 169.047 52.6972C172.208 52.6972 175.401 53.5056 177.374 56.7122L175.309 57.9886C174.057 56.0897 171.585 55.1559 169.11 55.1246L169.108 55.1268Z" fill="white"/>
<path d="M61.643 59.0747C63.5084 59.0747 65.0206 57.5708 65.0206 55.7158C65.0206 53.8607 63.5084 52.3568 61.643 52.3568C59.7775 52.3568 58.2653 53.8607 58.2653 55.7158C58.2653 57.5708 59.7775 59.0747 61.643 59.0747Z" fill="white"/>
<path d="M64.6761 73.2024L49.0238 53.1361H44.8287V74.9266H49.7759V68.1416V61.2199L60.481 74.9266H63.1899H64.6761H66.0204L64.6761 73.2024Z" fill="white"/>
<path d="M131.104 53.1361V69.8524L117.674 53.1361H115.765V74.9266H118.487V58.2708L131.919 74.9266H133.797V53.1361H131.104Z" fill="white"/>
<path d="M165.068 84.4033H162.123V80.4912H165.068V81.2056H162.859V82.1058H164.989V82.7932H162.859V83.6755H165.068V84.401V84.4033Z" fill="white"/>
<path d="M169.328 81.4362C169.193 81.2123 168.822 80.9996 168.396 80.9996C167.844 80.9996 167.581 81.228 167.581 81.5191C167.581 81.8595 167.986 81.9557 168.457 82.0117C169.277 82.1125 170.042 82.3252 170.042 83.259C170.042 84.1301 169.268 84.5063 168.389 84.5063C167.585 84.5063 166.968 84.26 166.676 83.5456L167.293 83.2277C167.466 83.6576 167.923 83.8479 168.401 83.8479C168.878 83.8479 169.306 83.6867 169.306 83.2612C169.306 82.8918 168.919 82.7417 168.396 82.6857C167.592 82.5917 166.851 82.379 166.851 81.5012C166.851 80.6973 167.648 80.3658 168.374 80.3614C168.986 80.3614 169.621 80.5338 169.918 81.1384L169.328 81.4407V81.4362Z" fill="white"/>
<path d="M172.717 81.163H171.47V80.4912H174.708V81.163H173.46V84.4033H172.72V81.163H172.717Z" fill="white"/>
<path d="M175.694 84.0517C175.694 84.5824 174.886 84.5824 174.886 84.0517C174.886 83.521 175.694 83.521 175.694 84.0517Z" fill="white"/>
<path d="M159.835 87.1218C159.907 86.1992 160.711 85.9372 161.465 85.9372C162.219 85.9372 162.994 86.2283 162.994 87.1442C162.994 88.1384 162.242 88.3691 161.416 88.3691C161.089 88.3691 160.562 88.4519 160.562 88.8774V89.2133H163.008V89.9007H159.821V88.8729C159.821 87.9727 160.641 87.704 161.418 87.704C161.715 87.704 162.26 87.6144 162.26 87.1621C162.26 86.7097 161.922 86.5911 161.467 86.5754C161.035 86.5754 160.591 86.7321 160.573 87.124H159.837L159.835 87.1218Z" fill="white"/>
<path d="M164.746 87.6413C164.746 85.3057 168.128 85.3102 168.128 87.6413V88.2459C168.128 90.577 164.746 90.5815 164.746 88.2459V87.6413ZM165.482 88.2459C165.482 89.6656 167.394 89.6656 167.394 88.2459V87.6413C167.394 86.244 165.482 86.2283 165.482 87.6413V88.2459Z" fill="white"/>
<path d="M169.884 87.1218C169.957 86.1992 170.76 85.9372 171.515 85.9372C172.269 85.9372 173.044 86.2283 173.044 87.1442C173.044 88.1384 172.292 88.3691 171.465 88.3691C171.139 88.3691 170.612 88.4519 170.612 88.8774V89.2133H173.057V89.9007H169.871V88.8729C169.871 87.9727 170.691 87.704 171.467 87.704C171.765 87.704 172.31 87.6144 172.31 87.1621C172.31 86.7097 171.972 86.5911 171.517 86.5754C171.085 86.5754 170.641 86.7321 170.623 87.124H169.887L169.884 87.1218Z" fill="white"/>
<path d="M177.538 85.9932V88.4407H178V89.1551H177.538V89.8985H176.807V89.1551H174.706L174.638 88.4071L176.408 85.9932H177.538ZM176.807 88.4407V86.6291L175.476 88.4407H176.807Z" fill="white"/>
</g>
<defs>
<clipPath id="clip0_1_279">
<rect width="178" height="128" fill="white"/>
</clipPath>
</defs>
</svg>
