<svg width="275" height="37" viewBox="0 0 275 37" fill="none" xmlns="http://www.w3.org/2000/svg">
<path d="M22.634 10.1245C20.7484 8.15256 17.4573 7.28765 14.7994 7.28765C11.4631 7.28765 8.75302 8.68188 8.75302 10.9894C8.75302 14.0685 11.7032 14.6463 16.0553 15.0303C22.7279 15.608 29.0666 18.1578 29.0666 25.9488C29.0666 33.7399 22.1017 36.7221 14.7994 36.7705C8.94784 36.819 2.85273 34.5598 0 29.8444L4.49827 25.1808C7.11096 28.4986 11.4144 29.9412 14.8481 29.9412C18.8628 29.9412 21.6182 28.3533 21.6182 25.9488C21.6669 23.112 19.3916 21.8111 14.7994 21.4271C7.64324 20.7525 1.2559 18.9743 1.35331 11.0379C1.40201 4.3539 7.78588 0.793945 14.7507 0.793945C19.9726 0.793945 23.8899 1.94946 27.3723 5.98684L22.634 10.1245Z" fill="#EC6717"/>
<path d="M63.4072 2.04626V20.8528C63.4072 30.858 57.7957 36.1962 48.9 36.4833C40.0496 36.7705 32.5525 31.7229 32.5525 20.8528V2.04626H40.0496V20.8528C40.0496 26.8656 43.4346 29.9896 48.9487 29.7509C54.0767 29.4153 55.9136 25.9038 55.9136 20.8528V2.04626H63.4107H63.4072Z" fill="#EC6717"/>
<path d="M121.784 1.99792C127.924 1.99792 133.198 4.98012 133.198 11.377C133.198 14.5045 131.459 17.0507 128.119 18.3516C132.28 19.5071 134.259 23.2573 134.259 26.3364C134.259 33.5497 128.213 35.6669 121.78 35.6669H106.981V1.99792H121.78H121.784ZM111.239 16.473H121.975C125.99 16.473 128.989 15.0303 128.989 11.4219C128.989 7.81355 125.941 5.79659 121.784 5.79659H111.239V16.473ZM111.239 31.7195H121.784C125.266 31.7195 130.005 30.8062 130.005 26.1876C130.005 22.0014 125.604 20.2716 121.975 20.2716H111.239V31.7195Z" fill="#EC6717"/>
<path d="M144.223 31.7679H162.651V35.6634H139.968V1.99438H144.227V31.7679H144.223Z" fill="#EC6717"/>
<path d="M166.808 1.99792H171.067V35.6669H166.808V1.99792Z" fill="#EC6717"/>
<path d="M214.498 1.9495H226.831C238.342 1.9495 243.857 10.173 243.857 18.445C243.857 26.7169 238.732 35.6635 226.831 35.6635H214.498V1.94604V1.9495ZM226.831 31.5293C235.876 31.5293 239.696 24.8453 239.696 18.4C239.696 11.9547 235.535 5.94191 226.831 5.94191H218.753V31.5293H226.831Z" fill="#EC6717"/>
<path d="M261.265 5.07351C256.962 5.07351 252.366 6.90019 252.366 10.6989C252.366 14.4975 256.576 15.5562 261.554 16.3277C268.279 17.3379 275 18.9258 275 26.1876C275 33.4493 267.649 36.3346 261.216 36.3346C255.56 36.3346 249.607 34.3142 246.998 28.592L250.334 26.5232C252.606 30.6609 256.621 32.4875 261.265 32.4875C265.377 32.4875 270.891 31.1418 270.891 26.1391C270.891 22.0014 266.202 20.8009 261.123 20.0295C254.593 19.0192 248.209 17.5766 248.209 10.7473C248.063 3.96643 255.414 1.31982 261.171 1.31982C266.056 1.31982 270.989 2.56874 274.036 7.52292L270.846 9.4949C268.912 6.56115 265.092 5.11849 261.269 5.07005L261.265 5.07351Z" fill="#EC6717"/>
<path d="M95.2361 11.1728C98.1181 11.1728 100.455 8.84942 100.455 5.98338C100.455 3.11733 98.1181 0.793945 95.2361 0.793945C92.354 0.793945 90.0177 3.11733 90.0177 5.98338C90.0177 8.84942 92.354 11.1728 95.2361 11.1728Z" fill="#EC6717"/>
<path d="M99.9223 32.9996L75.7401 1.99792H69.2589V35.6635H76.9021V25.1808V14.4872L93.441 35.6635H97.6262H99.9223H101.999L99.9223 32.9996Z" fill="#EC6717"/>
<path d="M202.551 1.99792V27.824L181.803 1.99792H178.852V35.6635H183.059V9.93084L203.81 35.6635H206.712V1.99792H202.551Z" fill="#EC6717"/>
</svg>
